<svg width="89" height="88" viewBox="0 0 89 88" fill="none" xmlns="http://www.w3.org/2000/svg">
<path d="M22.784 68.152C19.712 68.152 17.0027 67.2987 14.656 65.592C12.352 63.8853 10.5387 61.5387 9.216 58.552C7.936 55.5653 7.296 52.152 7.296 48.312C7.296 46.3067 7.59467 44.344 8.192 42.424C8.832 40.4613 9.62133 38.6267 10.56 36.92C11.4987 35.1707 12.4587 33.6133 13.44 32.248C13.0987 31.736 12.928 30.9467 12.928 29.88C12.928 28.8133 13.376 27.6187 14.272 26.296C15.168 24.9733 16.4053 23.6933 17.984 22.456C19.5627 21.2187 21.3973 20.1947 23.488 19.384C25.5787 18.5733 27.7973 18.168 30.144 18.168C34.0267 18.168 37.312 19 40 20.664C42.688 22.328 44.7147 24.5253 46.08 27.256C47.488 29.944 48.192 32.888 48.192 36.088C48.192 40.696 47.4667 44.9413 46.016 48.824C44.5653 52.7067 42.6027 56.0987 40.128 59C37.696 61.9013 34.9653 64.1627 31.936 65.784C28.9493 67.3627 25.8987 68.152 22.784 68.152ZM21.824 27C21.9947 27.2133 22.08 27.4267 22.08 27.64C22.08 27.9387 21.9733 28.2373 21.76 28.536C21.5893 28.8347 21.376 29.176 21.12 29.56C20.3093 30.584 19.4347 31.928 18.496 33.592C17.6 35.256 16.7467 37.0907 15.936 39.096C15.168 41.1013 14.528 43.1707 14.016 45.304C13.504 47.3947 13.248 49.4 13.248 51.32C13.248 54.6053 13.9947 57.272 15.488 59.32C16.9813 61.3253 19.2 62.328 22.144 62.328C24.3627 62.328 26.4747 61.7947 28.48 60.728C30.528 59.6613 32.384 58.232 34.048 56.44C35.7547 54.6053 37.2267 52.5787 38.464 50.36C39.7013 48.0987 40.6613 45.7733 41.344 43.384C42.0267 40.9947 42.368 38.712 42.368 36.536C42.368 34.2747 41.92 32.1627 41.024 30.2C40.128 28.2373 38.8267 26.6587 37.12 25.464C35.4133 24.2693 33.344 23.672 30.912 23.672C28.864 23.672 27.0933 24.0133 25.6 24.696C24.1493 25.336 22.8907 26.104 21.824 27Z" fill="#FD1E20"/>
<path d="M55.784 68.152C52.712 68.152 50.0027 67.2987 47.656 65.592C45.352 63.8853 43.5387 61.5387 42.216 58.552C40.936 55.5653 40.296 52.152 40.296 48.312C40.296 46.3067 40.5947 44.344 41.192 42.424C41.832 40.4613 42.6213 38.6267 43.56 36.92C44.4987 35.1707 45.4587 33.6133 46.44 32.248C46.0987 31.736 45.928 30.9467 45.928 29.88C45.928 28.8133 46.376 27.6187 47.272 26.296C48.168 24.9733 49.4053 23.6933 50.984 22.456C52.5627 21.2187 54.3973 20.1947 56.488 19.384C58.5787 18.5733 60.7973 18.168 63.144 18.168C67.0267 18.168 70.312 19 73 20.664C75.688 22.328 77.7147 24.5253 79.08 27.256C80.488 29.944 81.192 32.888 81.192 36.088C81.192 40.696 80.4667 44.9413 79.016 48.824C77.5653 52.7067 75.6027 56.0987 73.128 59C70.696 61.9013 67.9653 64.1627 64.936 65.784C61.9493 67.3627 58.8987 68.152 55.784 68.152ZM54.824 27C54.9947 27.2133 55.08 27.4267 55.08 27.64C55.08 27.9387 54.9733 28.2373 54.76 28.536C54.5893 28.8347 54.376 29.176 54.12 29.56C53.3093 30.584 52.4347 31.928 51.496 33.592C50.6 35.256 49.7467 37.0907 48.936 39.096C48.168 41.1013 47.528 43.1707 47.016 45.304C46.504 47.3947 46.248 49.4 46.248 51.32C46.248 54.6053 46.9947 57.272 48.488 59.32C49.9813 61.3253 52.2 62.328 55.144 62.328C57.3627 62.328 59.4747 61.7947 61.48 60.728C63.528 59.6613 65.384 58.232 67.048 56.44C68.7547 54.6053 70.2267 52.5787 71.464 50.36C72.7013 48.0987 73.6613 45.7733 74.344 43.384C75.0267 40.9947 75.368 38.712 75.368 36.536C75.368 34.2747 74.92 32.1627 74.024 30.2C73.128 28.2373 71.8267 26.6587 70.12 25.464C68.4133 24.2693 66.344 23.672 63.912 23.672C61.864 23.672 60.0933 24.0133 58.6 24.696C57.1493 25.336 55.8907 26.104 54.824 27Z" fill="#FD1E20"/>
<path d="M63.5 46C61.6854 51.1085 58.8007 56.8501 55 55.5C51.1992 54.15 49.6854 48.1085 51.5 43C53.3146 37.8915 56.1992 32.65 60 34C63.8007 35.3501 65.3146 40.8915 63.5 46Z" fill="#FD1E20"/>
<path d="M36.4058 45.6458C34.5912 50.7543 31.5919 55.4958 27.7912 54.1458C23.9904 52.7957 22.5911 47.2543 24.4057 42.1458C26.2202 37.0373 30.605 31.7958 34.4058 33.1458C38.2065 34.4959 38.2203 40.5374 36.4058 45.6458Z" fill="#FD1E20"/>
</svg>
